<svg xmlns="http://www.w3.org/2000/svg" xmlns:xlink="http://www.w3.org/1999/xlink" width="1366" height="461" fill="none" xmlns:v="https://vecta.io/nano"><style><![CDATA[.B{fill-rule:evenodd}.C{fill:#7b1fa1}.D{fill:#ae5bba}.E{fill:#c879ff}.F{fill:#c87be4}.G{color-interpolation-filters:sRGB}.H{flood-opacity:0}.I{fill:#daa4fe}]]></style><path fill="url(#F)" d="M0 0h1366v460.835H0z"/><mask id="A" mask-type="alpha" maskUnits="userSpaceOnUse" x="0" y="8" width="1366" height="453"><path fill="url(#G)" d="M0 8.214h1366V461H0z"/></mask><g mask="url(#A)"><path d="M151.671 110.187c2.2.621 4.461-.754 5.05-3.071s-.716-4.7-2.915-5.321-4.461.755-5.05 3.072.716 4.699 2.915 5.32zm-.762 2.997c3.771 1.065 7.646-1.293 8.656-5.265s-1.227-8.056-4.997-9.121-7.646 1.293-8.657 5.266 1.228 8.056 4.998 9.12z" class="B D"/><path d="M180.006 232.863c1.611-1.697 1.611-4.447 0-6.144s-4.22-1.696-5.83 0-1.61 4.447 0 6.144 4.22 1.696 5.83 0zm2.083 2.194c2.76-2.909 2.76-7.624 0-10.532s-7.235-2.908-9.996 0-2.76 7.623 0 10.532 7.236 2.908 9.996 0zm108.241-53.628c1.61-1.697 1.61-4.447 0-6.144s-4.22-1.696-5.83 0-1.611 4.447 0 6.144 4.22 1.696 5.83 0zm2.083 2.194c2.76-2.908 2.76-7.624 0-10.532s-7.236-2.908-9.996 0-2.76 7.624 0 10.532 7.235 2.908 9.996 0zm13.538 121.248c1.61-1.697 1.61-4.447 0-6.144s-4.221-1.696-5.831 0-1.61 4.447 0 6.144 4.221 1.696 5.831 0zm2.082 2.194c2.76-2.909 2.76-7.624 0-10.532s-7.235-2.908-9.995 0-2.76 7.623 0 10.532 7.235 2.908 9.995 0z" class="B C"/><circle r="4.685" transform="matrix(-.688405 .725326 -.688405 -.725326 115.944 146.847)" class="D"/><path d="M171.912 158.464a2 2 0 0 0 0 2.718l2.418 2.548-2.418 2.548c-.713.75-.713 1.967 0 2.718a1.76 1.76 0 0 0 2.579 0l2.419-2.549 2.418 2.549a1.76 1.76 0 0 0 2.579 0c.713-.751.713-1.968 0-2.718l-2.418-2.548 2.418-2.548a2 2 0 0 0 0-2.718 1.76 1.76 0 0 0-2.579 0l-2.418 2.548-2.419-2.548c-.712-.751-1.867-.751-2.579 0zM89.594 52.8l2.526-1.254 2.977-1.527 2.899-1.511 2.289-1.263-6.99-1.861c-.583-.155-.965-.376-1.135-.667s-.209-.658-.091-1.093a2.73 2.73 0 0 1 .354-.801l.364-.497 10.739 2.858c.515.137.886.364 1.122.682s.285.715.154 1.201a1.9 1.9 0 0 1-.491.865c-.232.249-.631.535-1.186.853l-1.32.736-1.665.89-1.847.951-1.836.945-1.668.834-1.336.658 8.921 2.374-.706 2.616-12.771-3.4.699-2.59zm-3.318 5.182c.348.312.573.5.96.667.677.354.969.669 1.782.958.683.264 1.507.447 1.773.517a16 16 0 0 0 1.662.452l3.366.677c.563.095 1.11.076 1.687.12l1.551.111c.887.017 1.902-.133 2.799-.15.407-.01.831-.117 1.24-.136s.358-.133.64-.396a1.42 1.42 0 0 0-.614-.346l-.48-.128c-.29-.086-.584-.156-.882-.207-1.129-.145-2.59-.589-2.949-.657-.554-.093-1.113-.305-1.66-.424l-.968-.194-1.597-.352-2.876-.72-1.157-.381c-.752-.209-1.264-.665-2.273-.742-.312-.001-.618-.027-.937.034s-.606.268-.847.377-.524.682-.22.919z" class="D"/><path d="M67.288 273.235c2.199.621 4.46-.755 5.05-3.072s-.716-4.7-2.915-5.32-4.46.754-5.05 3.071.716 4.7 2.915 5.321zm-.762 2.997c3.77 1.064 7.646-1.293 8.656-5.266s-1.227-8.056-4.998-9.121-7.646 1.293-8.656 5.266 1.227 8.056 4.998 9.121z" class="B C"/><circle r="6.534" transform="matrix(-.688398 .725333 -.688398 -.725333 138.016 293.545)" class="C"/><circle r="6.534" transform="matrix(-.688398 .725333 -.688398 -.725333 337.183 259.598)" class="C"/><path d="M217.796 289.276c-.973-.275-1.974.334-2.234 1.359l-.885 3.48-3.304-.932c-.973-.275-1.974.333-2.234 1.359s.316 2.079 1.29 2.353l3.303.933-.885 3.481c-.26 1.025.317 2.079 1.29 2.353s1.973-.333 2.234-1.359l.885-3.48 3.303.932c.973.275 1.973-.333 2.234-1.359s-.317-2.079-1.29-2.353l-3.303-.933.885-3.48c.261-1.026-.316-2.079-1.289-2.354zM69.997 172.503a2 2 0 0 0 0 2.718l2.418 2.548-2.418 2.548a2 2 0 0 0 0 2.718 1.76 1.76 0 0 0 2.579 0l2.419-2.549 2.418 2.548c.712.751 1.867.751 2.579 0s.712-1.967 0-2.717l-2.418-2.548 2.418-2.548a2 2 0 0 0 0-2.718 1.76 1.76 0 0 0-2.58 0l-2.418 2.548-2.418-2.548c-.712-.751-1.867-.751-2.579 0z" class="C"/><path d="M218.003 109.741l2.113-1.861 2.478-2.241 2.406-2.205 1.883-1.809h-7.237c-.604 0-1.031-.114-1.27-.353s-.373-.582-.373-1.032a2.7 2.7 0 0 1 .133-.864l.222-.573h11.118c.533 0 .95.124 1.261.371s.461.617.461 1.12c.005.337-.081.669-.248.962-.16.3-.471.679-.924 1.129l-1.083 1.05-1.376 1.288-1.537 1.393-1.527 1.385-1.394 1.235-1.119.979h9.235v2.709h-13.222v-2.682zm-1.855 5.858c.417.212.683.335 1.101.397.746.168 1.11.397 1.971.468.728.079 1.572.044 1.847.044.574.034 1.149.036 1.723.009l3.427-.212c.569-.053 1.093-.212 1.661-.318l1.527-.291c.862-.212 1.803-.617 2.664-.864.391-.115.773-.327 1.164-.45s.31-.221.515-.547c-.21-.115-.445-.176-.684-.177h-.497c-.302-.008-.605 0-.906.027-1.128.15-2.655.097-3.019.123-.56.053-1.155-.008-1.714.018l-.986.062-1.634.07-2.966.044-1.216-.07c-.782-.009-1.394-.318-2.389-.132-.302.079-.604.132-.897.273s-.515.415-.719.582-.329.794.027.944z" class="D"/><path d="M268.275 229.566l1.62-1.404 1.9-1.69 1.845-1.663 1.444-1.364h-5.55c-.463 0-.79-.086-.973-.266s-.286-.439-.286-.778a2.01 2.01 0 0 1 .102-.652l.17-.432h8.525c.409 0 .729.093.967.279s.354.466.354.845a1.41 1.41 0 0 1-.19.725c-.123.226-.361.512-.709.852l-.83.791-1.056.971-1.178 1.051-1.171 1.045-1.069.931-.858.739h7.082v2.042h-10.139v-2.022zm-1.423 4.417c.32.16.524.253.844.3.572.126.851.299 1.512.352.558.06 1.205.034 1.416.034.44.025.881.027 1.321.006l2.629-.159c.436-.04.837-.16 1.273-.24l1.171-.219c.661-.16 1.383-.466 2.043-.652.3-.087.592-.246.892-.34s.238-.166.395-.412a1.1 1.1 0 0 0-.524-.133h-.382c-.231-.007-.463 0-.694.02-.865.113-2.036.073-2.315.093-.429.04-.886-.007-1.315.013l-.755.047-1.253.053-2.275.033-.932-.053c-.6-.007-1.07-.239-1.832-.1-.232.06-.463.1-.688.207s-.395.312-.551.439-.252.598.02.711z" class="C"/><g filter="url(#B)"><ellipse rx="249.539" ry="262.926" transform="matrix(-1 0 0 1 1232.84 374.173)" fill="url(#H)"/></g><g filter="url(#C)"><ellipse rx="182.652" ry="192.451" transform="matrix(-1 0 0 1 1232.84 374.17)" fill="url(#I)"/></g><ellipse rx="131.201" ry="138.239" transform="matrix(-1 0 0 1 1231.4 374.172)" fill="url(#J)"/><path d="M1265.89 171.366c0-1.843 1.41-3.336 3.16-3.336h5.94v-6.255c0-1.842 1.42-3.336 3.17-3.336s3.17 1.494 3.17 3.336v6.255h5.93c1.75 0 3.17 1.493 3.17 3.336s-1.42 3.337-3.17 3.337h-5.93v6.257c0 1.843-1.42 3.337-3.17 3.337s-3.17-1.494-3.17-3.337v-6.257h-5.94c-1.75 0-3.16-1.494-3.16-3.337zm-157.04 93.757c-.69-1.259-.28-2.87.92-3.597l4.05-2.468-2.34-4.278c-.69-1.259-.28-2.87.91-3.597 1.2-.727 2.73-.296 3.42.964l2.34 4.278 4.06-2.47c1.2-.727 2.72-.295 3.41.964s.29 2.87-.91 3.597l-4.06 2.47 2.34 4.274c.69 1.259.28 2.87-.91 3.597-1.2.727-2.73.295-3.42-.964l-2.34-4.274-4.06 2.468c-1.19.727-2.72.296-3.41-.964z" class="E"/><path d="M1060.56 380.237c1.33-2.42 4.27-3.25 6.56-1.852 2.3 1.397 3.09 4.493 1.76 6.914-1.32 2.42-4.26 3.25-6.56 1.852s-3.08-4.493-1.76-6.914zm-1.01-.615c1.65-3.01 5.3-4.041 8.16-2.303 2.85 1.737 3.83 5.586 2.18 8.595-1.64 3.009-5.3 4.041-8.15 2.303-2.86-1.737-3.84-5.586-2.19-8.595zm68.54-211.465c1.63-2.982 5.25-4.004 8.08-2.282s3.8 5.536 2.17 8.519c-1.64 2.982-5.26 4.004-8.09 2.282s-3.8-5.536-2.16-8.519zm-1.25-.758c2.03-3.708 6.53-4.979 10.05-2.838s4.73 6.883 2.69 10.591c-2.03 3.708-6.53 4.979-10.05 2.838s-4.72-6.883-2.69-10.591z" class="B E"/><ellipse rx="8.089" ry="7.88" transform="matrix(-.480541 -.876972 -.85434 .519714 981.215 286.487)" class="I"/><ellipse rx="9.01" ry="8.777" transform="matrix(-.480541 -.876972 -.85434 .519714 1357.51 285.512)" class="I"/><g filter="url(#D)"><ellipse rx="158.254" ry="160.127" transform="matrix(-.00941 .999956 -.999945 -.010446 307.803 479.045)" fill="url(#K)"/></g><g filter="url(#E)"><ellipse rx="115.836" ry="117.206" transform="matrix(-.00941 .999956 -.999945 -.010446 307.804 479.043)" fill="url(#L)"/></g><ellipse rx="83.206" ry="84.19" transform="matrix(-.00941 .999956 -.999945 -.010446 307.795 479.962)" fill="url(#M)"/><path d="M431.506 459.381c1.122.011 2.04-.878 2.051-1.987l.035-3.768 3.809.04c1.122.011 2.04-.878 2.051-1.987s-.891-2.018-2.013-2.03l-3.809-.039.035-3.763c.011-1.109-.89-2.018-2.013-2.03s-2.04.878-2.05 1.987l-.036 3.763-3.811-.04c-1.122-.011-2.04.878-2.05 1.987s.89 2.018 2.013 2.03l3.81.039-.035 3.768c-.011 1.109.891 2.018 2.013 2.03zM316.472 339.194a2.52 2.52 0 0 0-.906-3.471l-4.14-2.418 2.442-4.09c.719-1.204.314-2.758-.906-3.47a2.58 2.58 0 0 0-3.51.891l-2.442 4.089-4.14-2.418c-1.219-.713-2.791-.314-3.51.89a2.52 2.52 0 0 0 .905 3.471l4.14 2.418-2.441 4.088c-.72 1.204-.314 2.758.905 3.47a2.58 2.58 0 0 0 3.511-.89l2.441-4.088 4.14 2.419a2.58 2.58 0 0 0 3.511-.891zm128.524 60.342c2.055-1.159 2.405-4.596 1.186-8.698 2.982-2.821 4.306-5.961 3.096-8.116s-4.576-2.648-8.529-1.555c-2.867-3.172-5.98-4.654-8.035-3.494-.863.531-1.466 1.406-1.672 2.427a12.35 12.35 0 0 0 .482 6.27c-1.559 1.341-2.724 3.1-3.376 5.093-.306.99-.203 2.081.284 3.024 1.211 2.155 4.576 2.648 8.529 1.555 2.867 3.172 5.98 4.654 8.035 3.494zm.366-2.857c-.124.672-.506 1.256-1.061 1.621-1.268.716-3.565-.267-5.921-2.708a22.99 22.99 0 0 0 3.496-1.61 22.94 22.94 0 0 0 3.191-2.163c.489 1.585.591 3.255.295 4.86zm2.737-13.292c.303.627.353 1.342.141 1.988a9.43 9.43 0 0 1-2.552 3.992c-.953-2.521-2.282-4.888-3.938-7.013 3.171-.756 5.601-.298 6.349 1.033zm-14.691-4.479c1.269-.715 3.567.268 5.922 2.709a22.89 22.89 0 0 0-3.496 1.61 22.96 22.96 0 0 0-3.186 2.16c-.861-3.283-.509-5.763.76-6.479zm3.122 5.555c1.213-.69 2.49-1.261 3.814-1.706a25.89 25.89 0 0 1 4.272 7.604c-1.068.904-2.218 1.703-3.437 2.384-1.213.691-2.489 1.262-3.813 1.707a24.81 24.81 0 0 1-2.46-3.621 24.8 24.8 0 0 1-1.811-3.983 21.67 21.67 0 0 1 3.435-2.385zm-6.919 9.359c-.749-1.331.122-3.652 2.41-5.976a26.47 26.47 0 0 0 1.706 3.652 26.46 26.46 0 0 0 2.232 3.356c-3.169.756-5.6.298-6.348-1.032zm6.595-6.026c-.378 1.484.501 3.05 1.964 3.496a2.62 2.62 0 0 0 3.333-1.882c.378-1.484-.502-3.05-1.964-3.496a2.62 2.62 0 0 0-3.333 1.882z" class="E"/><ellipse rx="6.179" ry="6.143" transform="matrix(.864326 .503817 -.51335 .857652 156.465 389.783)" fill="#8d2bb7"/><ellipse rx="5.54" ry="5.508" transform="matrix(.863843 .504647 -.512514 .858153 362.542 400.548)" class="I"/><ellipse opacity=".6" rx="128.316" ry="133.376" transform="matrix(.85447 .532882 -.486564 .866153 737.746 76.7864)" fill="url(#N)"/><path d="M746.614 49.065c-.35-1.347-2.186-2.059-4.605-1.974-1.132-2.124-2.669-3.349-4.02-2.978s-2.089 2.219-2.039 4.64c-2.139 1.165-3.385 2.722-3.035 4.069a2.18 2.18 0 0 0 1.099 1.317 6.75 6.75 0 0 0 3.505.659 6.68 6.68 0 0 0 2.324 2.688 2.2 2.2 0 0 0 1.698.288c1.35-.37 2.089-2.219 2.039-4.64 2.138-1.164 3.384-2.722 3.034-4.069zm-1.516-.635c.352.171.619.476.742.848.216.831-.643 1.997-2.309 2.979a14.14 14.14 0 0 0-.397-2.238 13.97 13.97 0 0 0-.742-2.145 5.59 5.59 0 0 1 2.706.556zm-6.908-3.545c.386-.079.785-.002 1.11.216a5.54 5.54 0 0 1 1.834 2.053c-1.515.168-2.998.575-4.394 1.204.027-1.924.616-3.244 1.45-3.473zm-4.5 7.725c-.216-.832.643-1.998 2.309-2.979a14.22 14.22 0 0 0 .396 2.237 14.15 14.15 0 0 0 .742 2.142c-1.921.002-3.231-.569-3.447-1.4zm3.48-.955c-.21-.796-.345-1.61-.405-2.433a14.1 14.1 0 0 1 4.765-1.307c.347.745.625 1.521.829 2.319.21.795.346 1.61.406 2.432-.749.359-1.529.649-2.328.865a13.5 13.5 0 0 1-2.437.441 13.35 13.35 0 0 1-.83-2.318zm4.17 5.348c-.834.229-1.986-.614-2.942-2.268a14.33 14.33 0 0 0 2.24-.43 14.41 14.41 0 0 0 2.151-.775c-.026 1.923-.615 3.244-1.449 3.473zm-2.387-4.667c.762.437 1.742.168 2.19-.601s.194-1.747-.567-2.184-1.743-.168-2.191.601a1.59 1.59 0 0 0 .568 2.185zm94.926 107.159c-.77-.744-1.967-.69-2.674.121l-2.399 2.754-2.612-2.527c-.77-.745-1.967-.691-2.674.12a2.07 2.07 0 0 0 .114 2.817l2.612 2.527-2.399 2.754a2.07 2.07 0 0 0 .114 2.817c.77.745 1.967.691 2.674-.12l2.399-2.754 2.615 2.529c.77.745 1.967.691 2.674-.12a2.07 2.07 0 0 0-.114-2.817l-2.616-2.53 2.4-2.753c.707-.812.655-2.073-.114-2.818z" class="F"/><path d="M667.85 64.162c-.739-.779-1.937-.779-2.676 0l-2.509 2.644-2.509-2.644c-.739-.779-1.938-.779-2.677 0s-.738 2.041 0 2.82l2.51 2.644-2.509 2.643a2.07 2.07 0 0 0 0 2.82c.739.779 1.937.779 2.676 0l2.509-2.643 2.508 2.643c.739.779 1.937.779 2.676 0a2.07 2.07 0 0 0 0-2.82l-2.508-2.643 2.509-2.644a2.07 2.07 0 0 0 0-2.82z" class="E"/><path d="M848.498 36.824c.463-.487.463-1.277 0-1.764l-1.568-1.653 1.57-1.654c.462-.487.462-1.277 0-1.764a1.14 1.14 0 0 0-1.674 0l-1.571 1.655-1.57-1.654a1.14 1.14 0 0 0-1.674 0c-.462.487-.462 1.277 0 1.764l1.57 1.654-1.569 1.653c-.462.487-.462 1.277 0 1.764a1.14 1.14 0 0 0 1.675 0l1.568-1.653 1.569 1.653a1.14 1.14 0 0 0 1.674 0z" fill="#de99f8"/><path d="M765.38 159.14c.156-.616-.191-1.249-.775-1.414l-1.983-.56.532-2.089c.156-.616-.19-1.249-.775-1.414s-1.185.2-1.342.816l-.531 2.09-1.986-.561c-.585-.165-1.186.201-1.342.816s.19 1.249.775 1.414l1.986.561-.532 2.092c-.157.616.19 1.249.774 1.414s1.186-.201 1.342-.817l.532-2.091 1.983.559c.584.165 1.185-.2 1.342-.816z" class="F"/><path d="M704.834 109.733c-.535-2.104-2.588-3.353-4.585-2.789s-3.183 2.727-2.648 4.831 2.588 3.354 4.586 2.79 3.182-2.727 2.647-4.832zm.88-.248c-.666-2.616-3.218-4.169-5.701-3.468s-3.957 3.391-3.291 6.007 3.217 4.169 5.7 3.468 3.957-3.391 3.292-6.007z" class="B F"/><path d="M857.198 95.729c-.325-1.279-1.572-2.038-2.786-1.695s-1.934 1.657-1.609 2.936 1.573 2.038 2.787 1.695 1.934-1.657 1.608-2.936zm.535-.151c-.404-1.59-1.955-2.534-3.464-2.108s-2.405 2.06-2.001 3.65 1.956 2.533 3.465 2.107 2.404-2.06 2-3.65z" fill="#c9a6d8" class="B"/><ellipse rx="4.26" ry="4.165" transform="matrix(.679988 -.71801 .695536 .734429 732.349 14.0292)" fill="#de99f8"/><ellipse rx="3.825" ry="3.739" transform="matrix(.680749 -.717268 .696317 .733671 715.958 165.856)" class="F"/></g><defs><filter id="B" x="983.302" y="111.247" width="499.078" height="525.852" filterUnits="userSpaceOnUse" class="G"><feFlood class="H"/><feBlend in="SourceGraphic" result="B"/><feColorMatrix in="SourceAlpha" values="0 0 0 0 0 0 0 0 0 0 0 0 0 0 0 0 0 0 127 0" result="C"/><feOffset/><feGaussianBlur stdDeviation="15.258"/><feComposite in2="C" operator="arithmetic" k2="-1" k3="1"/><feColorMatrix values="0 0 0 0 0.160784 0 0 0 0 0.160784 0 0 0 0 0.160784 0 0 0 0.05 0"/><feBlend in2="B"/></filter><filter id="C" x="1050.19" y="181.72" width="365.305" height="384.902" filterUnits="userSpaceOnUse" class="G"><feFlood class="H"/><feBlend in="SourceGraphic" result="B"/><feColorMatrix in="SourceAlpha" values="0 0 0 0 0 0 0 0 0 0 0 0 0 0 0 0 0 0 127 0" result="C"/><feOffset/><feGaussianBlur stdDeviation="4.427"/><feComposite in2="C" operator="arithmetic" k2="-1" k3="1"/><feColorMatrix values="0 0 0 0 0.160784 0 0 0 0 0.160784 0 0 0 0 0.160784 0 0 0 0.08 0"/><feBlend in2="B"/></filter><filter id="D" x="147.677" y="320.789" width="320.25" height="316.513" filterUnits="userSpaceOnUse" class="G"><feFlood class="H"/><feBlend in="SourceGraphic" result="B"/><feColorMatrix in="SourceAlpha" values="0 0 0 0 0 0 0 0 0 0 0 0 0 0 0 0 0 0 127 0" result="C"/><feOffset/><feGaussianBlur stdDeviation="12.243"/><feComposite in2="C" operator="arithmetic" k2="-1" k3="1"/><feColorMatrix values="0 0 0 0 0.160784 0 0 0 0 0.160784 0 0 0 0 0.160784 0 0 0 0.05 0"/><feBlend in2="B"/></filter><filter id="E" x="190.6" y="363.206" width="234.41" height="231.674" filterUnits="userSpaceOnUse" class="G"><feFlood class="H"/><feBlend in="SourceGraphic" result="B"/><feColorMatrix in="SourceAlpha" values="0 0 0 0 0 0 0 0 0 0 0 0 0 0 0 0 0 0 127 0" result="C"/><feOffset/><feGaussianBlur stdDeviation="3.552"/><feComposite in2="C" operator="arithmetic" k2="-1" k3="1"/><feColorMatrix values="0 0 0 0 0.160784 0 0 0 0 0.160784 0 0 0 0 0.160784 0 0 0 0.08 0"/><feBlend in2="B"/></filter><radialGradient id="F" cx="0" cy="0" r="1" gradientTransform="translate(1684 -154.092) rotate(162.067) scale(1429.95 1250.84)" xlink:href="#O"><stop stop-color="#d260c7"/><stop offset="1" stop-color="#6c1891"/></radialGradient><radialGradient id="G" cx="0" cy="0" r="1" gradientTransform="translate(1684 -143.187) rotate(162.36) scale(1427.6 1231.02)" xlink:href="#O"><stop stop-color="#d260c7"/><stop offset="1" stop-color="#6c1891"/></radialGradient><linearGradient id="H" x1="249.539" y1="0" x2="249.539" y2="536.685" xlink:href="#O"><stop stop-color="#9435b5"/><stop offset="1" stop-color="#9435b5" stop-opacity="0"/></linearGradient><linearGradient id="I" x1="182.463" y1="-71.724" x2="182.463" y2="459.145" xlink:href="#O"><stop stop-color="#7f2895"/><stop offset="1" stop-color="#7f2895" stop-opacity="0"/></linearGradient><linearGradient id="J" x1="131.148" y1="-117.596" x2="131.148" y2="404.933" xlink:href="#O"><stop stop-color="#611867"/><stop offset="1" stop-color="#611867" stop-opacity="0"/></linearGradient><linearGradient id="K" x1="158.254" y1="0" x2="158.254" y2="326.851" xlink:href="#O"><stop stop-color="#9435b5"/><stop offset="1" stop-color="#9435b5" stop-opacity="0"/></linearGradient><linearGradient id="L" x1="115.716" y1="-43.681" x2="115.716" y2="279.628" xlink:href="#O"><stop stop-color="#7f2895"/><stop offset="1" stop-color="#7f2895" stop-opacity="0"/></linearGradient><linearGradient id="M" x1="83.172" y1="-71.618" x2="83.172" y2="246.612" xlink:href="#O"><stop stop-color="#611867"/><stop offset="1" stop-color="#611867" stop-opacity="0"/></linearGradient><linearGradient id="N" x1="128.316" y1="0" x2="128.316" y2="266.752" xlink:href="#O"><stop stop-color="#f6d7ff"/><stop offset="1" stop-color="#e8caff" stop-opacity="0"/></linearGradient><linearGradient id="O" gradientUnits="userSpaceOnUse"/></defs></svg>