<svg width="30" height="30" viewBox="0 0 30 30" fill="none" xmlns="http://www.w3.org/2000/svg">
<circle cx="15" cy="15" r="15" fill="#7B1FA1"/>
<rect width="14.4" height="14.4" transform="translate(7.80029 7.80078)" fill="#7B1FA1"/>
<path fill-rule="evenodd" clip-rule="evenodd" d="M16.2141 10.3532C15.9666 10.5736 15.9448 10.9529 16.1652 11.2003L18.8767 14.2435L10.1966 14.2957C9.86528 14.2977 9.59827 14.5679 9.60026 14.8993C9.60226 15.2307 9.8725 15.4977 10.2039 15.4957L18.9085 15.4433L16.1652 18.5223C15.9448 18.7697 15.9666 19.1489 16.2141 19.3694C16.4615 19.5898 16.8407 19.568 17.0612 19.3206L20.6251 15.3206C20.6251 15.3206 20.6251 15.3206 20.6251 15.3206C20.6252 15.3205 20.6253 15.3204 20.6254 15.3203C20.8586 15.0586 20.8586 14.664 20.6254 14.4023C20.6253 14.4022 20.6252 14.4021 20.6251 14.402C20.6251 14.402 20.6251 14.402 20.6251 14.402L17.0612 10.402C16.8407 10.1546 16.4615 10.1328 16.2141 10.3532Z" fill="white"/>
</svg>
