<svg width="20" height="26" viewBox="0 0 20 26" fill="none" xmlns="http://www.w3.org/2000/svg"><path fill-rule="evenodd" clip-rule="evenodd" d="M7.63647 12.0912C7.63647 10.7858 8.69471 9.72754 10.0001 9.72754C10.627 9.72754 11.2282 9.97656 11.6715 10.4198C12.1147 10.8631 12.3637 11.4643 12.3637 12.0912C12.3637 13.3966 11.3055 14.4548 10.0001 14.4548C8.69471 14.4548 7.63647 13.3966 7.63647 12.0912ZM10.0001 5.72754C6.48557 5.72754 3.63647 8.57664 3.63647 12.0912C3.63647 15.6057 6.48557 18.4548 10.0001 18.4548C13.5147 18.4548 16.3637 15.6057 16.3637 12.0912C16.3637 10.4034 15.6933 8.78482 14.4999 7.59141C13.3065 6.39799 11.6879 5.72754 10.0001 5.72754ZM16.6778 17.6364L18.8067 19.3548H18.8436C19.2743 19.7902 19.2743 20.496 18.8436 20.9313C18.4129 21.3667 17.7146 21.3667 17.2839 20.9313L15.5172 18.9065C15.3502 18.7383 15.2563 18.5098 15.2563 18.2715C15.2563 18.0331 15.3502 17.8046 15.5172 17.6364C15.8393 17.3165 16.3557 17.3165 16.6778 17.6364Z" fill="#F7EBFF"></path></svg>